<svg width="186" height="186" viewBox="0 0 186 186" fill="none" xmlns="http://www.w3.org/2000/svg">
<rect x="0.5" y="0.5" width="81" height="81" rx="16.5" fill="white"/>
<path d="M32.1289 48.125C32.2201 49.1146 32.487 50.0326 32.9297 50.8789C33.3854 51.7122 34.0039 52.4414 34.7852 53.0664C35.5664 53.6784 36.4909 54.1602 37.5586 54.5117C38.6263 54.8503 39.8177 55.0195 41.1328 55.0195C43.0208 55.0195 44.668 54.7135 46.0742 54.1016C47.4805 53.4766 48.5677 52.6042 49.3359 51.4844C50.1042 50.3516 50.4883 49.0299 50.4883 47.5195C50.4883 46.3086 50.2474 45.2669 49.7656 44.3945C49.2839 43.5091 48.5482 42.7604 47.5586 42.1484C46.582 41.5365 45.3255 41.0156 43.7891 40.5859L39.5312 39.4336C38.2682 39.0951 37.3112 38.5938 36.6602 37.9297C36.0091 37.2656 35.6836 36.4258 35.6836 35.4102C35.6836 34.0299 36.2109 32.9167 37.2656 32.0703C38.3333 31.2109 39.7396 30.7812 41.4844 30.7812C42.5911 30.7812 43.5482 30.9505 44.3555 31.2891C45.1758 31.6276 45.8333 32.0964 46.3281 32.6953C46.8359 33.2943 47.1615 33.9974 47.3047 34.8047H50.1562C50.026 33.5286 49.5833 32.4023 48.8281 31.4258C48.0859 30.4362 47.0898 29.668 45.8398 29.1211C44.6029 28.5612 43.1706 28.2812 41.543 28.2812C39.8503 28.2812 38.3529 28.5938 37.0508 29.2188C35.7487 29.8438 34.7266 30.6966 33.9844 31.7773C33.2422 32.8581 32.8711 34.1016 32.8711 35.5078C32.8711 36.6146 33.1055 37.6042 33.5742 38.4766C34.043 39.3359 34.7135 40.0781 35.5859 40.7031C36.4714 41.3151 37.5391 41.7969 38.7891 42.1484L43.1641 43.3008C44.1927 43.5742 45.0391 43.9062 45.7031 44.2969C46.3802 44.6875 46.875 45.1628 47.1875 45.7227C47.513 46.2695 47.6758 46.9271 47.6758 47.6953C47.6758 48.6589 47.4219 49.5052 46.9141 50.2344C46.4062 50.9635 45.6901 51.5234 44.7656 51.9141C43.8411 52.3047 42.7474 52.5 41.4844 52.5C40.5469 52.5 39.7005 52.3958 38.9453 52.1875C38.2031 51.9661 37.5521 51.6602 36.9922 51.2695C36.4453 50.8659 35.9961 50.3971 35.6445 49.8633C35.306 49.3294 35.0716 48.75 34.9414 48.125H32.1289ZM40.1562 57.7539H42.3438V25.5469H40.1562V57.7539Z" fill="#150326"/>
<rect x="0.5" y="0.5" width="81" height="81" rx="16.5" stroke="#F2F2F4"/>
<rect x="104.5" y="0.5" width="81" height="81" rx="16.5" fill="white"/>
<path d="M153.57 55.1367V52.5586C153.023 52.7018 152.438 52.806 151.812 52.8711C151.188 52.9362 150.543 52.9688 149.879 52.9688C148.017 52.9688 146.422 52.5651 145.094 51.7578C143.766 50.9505 142.743 49.7852 142.027 48.2617C141.324 46.7383 140.973 44.9219 140.973 42.8125V40.5469C140.973 38.4245 141.324 36.6081 142.027 35.0977C142.743 33.5742 143.766 32.4089 145.094 31.6016C146.422 30.7943 148.017 30.3906 149.879 30.3906C150.543 30.3906 151.188 30.4232 151.812 30.4883C152.438 30.5534 153.023 30.6576 153.57 30.8008V28.2227C153.023 28.0664 152.444 27.9557 151.832 27.8906C151.22 27.8125 150.569 27.7734 149.879 27.7734C147.418 27.7734 145.309 28.2812 143.551 29.2969C141.806 30.2995 140.465 31.7513 139.527 33.6523C138.603 35.5404 138.141 37.832 138.141 40.5273V42.832C138.141 45.5143 138.603 47.806 139.527 49.707C140.465 51.6081 141.806 53.0599 143.551 54.0625C145.309 55.0651 147.418 55.5664 149.879 55.5664C150.569 55.5664 151.22 55.5273 151.832 55.4492C152.444 55.3841 153.023 55.2799 153.57 55.1367ZM135.816 39.8242H150.406V37.8125H135.816V39.8242ZM135.816 44.9023H150.406V42.8906H135.816V44.9023Z" fill="#150326"/>
<rect x="104.5" y="0.5" width="81" height="81" rx="16.5" stroke="#F2F2F4"/>
<rect x="0.5" y="104.5" width="81" height="81" rx="16.5" fill="white"/>
<path d="M49.6484 156.578H37.2656V156.324C38.2422 155.712 38.9258 154.866 39.3164 153.785C39.707 152.704 39.9023 151.448 39.9023 150.016C39.9023 148.779 39.7526 147.581 39.4531 146.422C39.1536 145.25 38.8542 144.078 38.5547 142.906C38.2682 141.721 38.125 140.504 38.125 139.254C38.125 137.743 38.6654 136.546 39.7461 135.66C40.8268 134.775 42.2396 134.332 43.9844 134.332C44.8568 134.332 45.7031 134.436 46.5234 134.645C47.3438 134.84 48.0664 135.087 48.6914 135.387V132.809C48.0794 132.522 47.3438 132.281 46.4844 132.086C45.638 131.878 44.7591 131.773 43.8477 131.773C42.1029 131.773 40.5859 132.079 39.2969 132.691C38.0208 133.303 37.0378 134.169 36.3477 135.289C35.6576 136.396 35.3125 137.717 35.3125 139.254C35.3125 140.504 35.4622 141.728 35.7617 142.926C36.0742 144.124 36.3867 145.322 36.6992 146.52C37.0117 147.704 37.168 148.909 37.168 150.133C37.168 151.214 36.9922 152.203 36.6406 153.102C36.3021 153.987 35.7878 154.736 35.0977 155.348C34.4076 155.947 33.5482 156.37 32.5195 156.617V159H49.6484V156.578ZM32.2852 146.578H46.9336V144.566H32.2852V146.578Z" fill="#150326"/>
<rect x="0.5" y="104.5" width="81" height="81" rx="16.5" stroke="#F2F2F4"/>
<rect x="104.5" y="104.5" width="81" height="81" rx="16.5" fill="white"/>
<path d="M136.344 134.488H142.164C143.219 134.488 144.15 134.684 144.957 135.074C145.777 135.452 146.415 136.025 146.871 136.793C147.327 137.548 147.555 138.492 147.555 139.625C147.555 141.37 147.06 142.685 146.07 143.57C145.081 144.443 143.753 144.879 142.086 144.879H136.344V147.379L146.266 159H150.211L140.309 147.457H142.184C144.137 147.457 145.719 147.073 146.93 146.305C148.154 145.536 149.052 144.547 149.625 143.336C150.198 142.112 150.484 140.836 150.484 139.508C150.484 137.88 150.146 136.591 149.469 135.641C148.792 134.677 147.848 133.993 146.637 133.59C145.426 133.173 144.02 132.965 142.418 132.965H136.344V134.488ZM153.688 132.34H136.344V134.527H153.688V132.34ZM153.688 138.609H136.344V140.777H153.688V138.609Z" fill="#150326"/>
<rect x="104.5" y="104.5" width="81" height="81" rx="16.5" stroke="#F2F2F4"/>
</svg>
