<svg width="510" height="140" viewBox="0 0 510 140" fill="none" xmlns="http://www.w3.org/2000/svg">
<path d="M31.5898 84.1053L1 101V140H509V1L478.119 25.3992C475.625 27.37 472.21 27.6697 469.405 26.1739L441.54 11.3151C439.438 10.1942 436.946 10.0684 434.742 10.9719L405.058 23.1392C404.4 23.4088 403.781 23.7649 403.218 24.198L374.555 46.2229C372.315 47.9444 369.332 48.3565 366.709 47.3071L341.92 37.3905C340.975 37.0124 339.967 36.8182 338.949 36.8182H305.933C304.447 36.8182 302.991 37.2319 301.727 38.013L274.569 54.7973C271.868 56.467 268.434 56.3804 265.82 54.5767L242.134 38.2335C240.798 37.3118 239.214 36.8182 237.591 36.8182H207.519C205.084 36.8182 202.781 37.9277 201.263 39.8324L173.678 74.4463C173.099 75.1735 172.397 75.7941 171.604 76.2802L140.267 95.4982C137.235 97.3577 133.339 96.9919 130.706 94.6005L110.528 76.2737C107.637 73.6488 103.275 73.4935 100.205 75.9062L81.1122 90.914C73.3683 97.0009 62.6915 97.7384 54.1843 92.7739L39.4896 84.1987C37.0565 82.7787 34.0558 82.7433 31.5898 84.1053Z" fill="url(#paint0_linear_2633_30335)"/>
<path d="M1 101L31.5898 84.1053C34.0558 82.7433 37.0565 82.7787 39.4896 84.1986L54.1843 92.7739C62.6915 97.7384 73.3683 97.0009 81.1122 90.914L100.205 75.9062C103.275 73.4935 107.637 73.6488 110.528 76.2737L130.706 94.6005C133.339 96.9919 137.235 97.3577 140.267 95.4982L171.604 76.2802C172.397 75.7941 173.099 75.1735 173.678 74.4463L201.263 39.8324C202.781 37.9277 205.084 36.8182 207.519 36.8182H237.591C239.214 36.8182 240.798 37.3118 242.134 38.2335L265.82 54.5767C268.434 56.3804 271.868 56.467 274.569 54.7973L301.727 38.013C302.991 37.2319 304.447 36.8182 305.933 36.8182H338.949C339.967 36.8182 340.975 37.0124 341.92 37.3905L366.709 47.3071C369.332 48.3565 372.315 47.9444 374.555 46.2229L403.218 24.198C403.781 23.7649 404.4 23.4088 405.058 23.1392L434.742 10.9719C436.946 10.0684 439.438 10.1942 441.54 11.3151L469.405 26.174C472.21 27.6698 475.625 27.37 478.119 25.3992C484.983 19.9763 499.031 8.87667 509 1" stroke="#9764CD" stroke-width="2"/>
<defs>
<linearGradient id="paint0_linear_2633_30335" x1="255" y1="1" x2="255" y2="140" gradientUnits="userSpaceOnUse">
<stop stop-color="#F6F1FC"/>
<stop offset="1" stop-color="#F6F1FC" stop-opacity="0"/>
</linearGradient>
</defs>
</svg>
