<svg width="280" height="240" viewBox="0 0 280 240" fill="none" xmlns="http://www.w3.org/2000/svg">
<rect x="20.5" y="8.5" width="239" height="63" rx="15.5" fill="white"/>
<path d="M39.06 42.44C39.2867 43.0133 39.6267 43.4733 40.08 43.82C40.5333 44.1533 41.0467 44.32 41.62 44.32C42.0867 44.32 42.4867 44.2067 42.82 43.98C43.1533 43.7533 43.32 43.4267 43.32 43C43.32 42.3733 42.86 41.9067 41.94 41.6L40.36 41.02C39.4 40.6733 38.6333 40.2 38.06 39.6C37.4867 39 37.2 38.22 37.2 37.26C37.2 36.74 37.28 36.26 37.44 35.82C37.6133 35.38 37.8533 34.9933 38.16 34.66C38.4667 34.3267 38.8267 34.0467 39.24 33.82C39.6533 33.5933 40.1133 33.44 40.62 33.36V31.48H42.62V33.42C43.3667 33.58 44.0333 33.8933 44.62 34.36C45.22 34.8267 45.6867 35.42 46.02 36.14L43.66 37.5C43.46 37.06 43.1867 36.6867 42.84 36.38C42.4933 36.0733 42.0667 35.92 41.56 35.92C41.1333 35.92 40.78 36.0267 40.5 36.24C40.2333 36.4533 40.1 36.7333 40.1 37.08C40.1 37.4 40.2133 37.66 40.44 37.86C40.6667 38.06 40.9867 38.24 41.4 38.4L43.1 39.06C44.1667 39.4467 44.9533 39.9467 45.46 40.56C45.98 41.1733 46.24 41.9333 46.24 42.84C46.24 43.4 46.1467 43.9133 45.96 44.38C45.7733 44.8333 45.5133 45.2333 45.18 45.58C44.8467 45.9133 44.46 46.1933 44.02 46.42C43.58 46.6467 43.1133 46.8067 42.62 46.9V48.92H40.62V46.92C39.7267 46.7733 38.9267 46.4333 38.22 45.9C37.5133 45.3667 36.9867 44.6533 36.64 43.76L39.06 42.44ZM49.9775 47V36H47.5975V33.26H52.9375V47H49.9775ZM57.4775 47V36H55.0975V33.26H60.4375V47H57.4775ZM62.9975 45.48C62.9975 45.24 63.0442 45.0133 63.1375 44.8C63.2308 44.5867 63.3575 44.4 63.5175 44.24C63.6775 44.08 63.8642 43.9533 64.0775 43.86C64.2908 43.7667 64.5242 43.72 64.7775 43.72C65.0175 43.72 65.2442 43.7667 65.4575 43.86C65.6842 43.9533 65.8775 44.08 66.0375 44.24C66.1975 44.4 66.3242 44.5867 66.4175 44.8C66.5108 45.0133 66.5575 45.24 66.5575 45.48C66.5575 45.96 66.3842 46.3733 66.0375 46.72C65.7042 47.0667 65.2842 47.24 64.7775 47.24C64.2708 47.24 63.8442 47.0733 63.4975 46.74C63.1642 46.3933 62.9975 45.9733 62.9975 45.48ZM68.3011 38.08C68.3011 37.36 68.4344 36.6933 68.7011 36.08C68.9678 35.4533 69.3344 34.92 69.8011 34.48C70.2678 34.0267 70.8144 33.6733 71.4411 33.42C72.0811 33.1533 72.7744 33.02 73.5211 33.02C74.2678 33.02 74.9544 33.1467 75.5811 33.4C76.2211 33.6533 76.7744 34.0067 77.2411 34.46C77.7078 34.9 78.0744 35.4267 78.3411 36.04C78.6078 36.6533 78.7411 37.32 78.7411 38.04C78.7411 39.3067 78.2811 40.6533 77.3611 42.08L74.1811 47H70.7811L73.8611 42.56C73.7011 42.6267 73.5278 42.6733 73.3411 42.7C73.1678 42.7267 73.0078 42.74 72.8611 42.74C72.1944 42.74 71.5811 42.62 71.0211 42.38C70.4744 42.1267 69.9944 41.7933 69.5811 41.38C69.1811 40.9533 68.8678 40.46 68.6411 39.9C68.4144 39.3267 68.3011 38.72 68.3011 38.08ZM71.2011 37.98C71.2011 38.3 71.2611 38.6 71.3811 38.88C71.5011 39.16 71.6678 39.4 71.8811 39.6C72.0944 39.8 72.3411 39.96 72.6211 40.08C72.9011 40.2 73.2011 40.26 73.5211 40.26C73.8411 40.26 74.1411 40.2 74.4211 40.08C74.7144 39.96 74.9611 39.8 75.1611 39.6C75.3744 39.4 75.5411 39.1667 75.6611 38.9C75.7811 38.62 75.8411 38.32 75.8411 38C75.8411 37.68 75.7811 37.38 75.6611 37.1C75.5411 36.82 75.3744 36.58 75.1611 36.38C74.9611 36.1667 74.7211 36 74.4411 35.88C74.1611 35.76 73.8611 35.7 73.5411 35.7C73.2211 35.7 72.9144 35.76 72.6211 35.88C72.3411 36 72.0944 36.1667 71.8811 36.38C71.6678 36.58 71.5011 36.82 71.3811 37.1C71.2611 37.3667 71.2011 37.66 71.2011 37.98ZM80.1956 38.08C80.1956 37.36 80.329 36.6933 80.5956 36.08C80.8623 35.4533 81.229 34.92 81.6956 34.48C82.1623 34.0267 82.709 33.6733 83.3356 33.42C83.9756 33.1533 84.669 33.02 85.4156 33.02C86.1623 33.02 86.849 33.1467 87.4756 33.4C88.1156 33.6533 88.669 34.0067 89.1356 34.46C89.6023 34.9 89.969 35.4267 90.2356 36.04C90.5023 36.6533 90.6356 37.32 90.6356 38.04C90.6356 39.3067 90.1756 40.6533 89.2556 42.08L86.0756 47H82.6756L85.7556 42.56C85.5956 42.6267 85.4223 42.6733 85.2356 42.7C85.0623 42.7267 84.9023 42.74 84.7556 42.74C84.089 42.74 83.4756 42.62 82.9156 42.38C82.369 42.1267 81.889 41.7933 81.4756 41.38C81.0756 40.9533 80.7623 40.46 80.5356 39.9C80.309 39.3267 80.1956 38.72 80.1956 38.08ZM83.0956 37.98C83.0956 38.3 83.1556 38.6 83.2756 38.88C83.3956 39.16 83.5623 39.4 83.7756 39.6C83.989 39.8 84.2356 39.96 84.5156 40.08C84.7956 40.2 85.0956 40.26 85.4156 40.26C85.7356 40.26 86.0356 40.2 86.3156 40.08C86.609 39.96 86.8556 39.8 87.0556 39.6C87.269 39.4 87.4356 39.1667 87.5556 38.9C87.6756 38.62 87.7356 38.32 87.7356 38C87.7356 37.68 87.6756 37.38 87.5556 37.1C87.4356 36.82 87.269 36.58 87.0556 36.38C86.8556 36.1667 86.6156 36 86.3356 35.88C86.0556 35.76 85.7556 35.7 85.4356 35.7C85.1156 35.7 84.809 35.76 84.5156 35.88C84.2356 36 83.989 36.1667 83.7756 36.38C83.5623 36.58 83.3956 36.82 83.2756 37.1C83.1556 37.3667 83.0956 37.66 83.0956 37.98Z" fill="#150326"/>
<path d="M92.6262 48.6H91.2502L97.1382 34.76H98.5142L92.6262 48.6ZM101.254 47H99.8777V39.224H101.238V40.344C101.451 39.9387 101.75 39.624 102.134 39.4C102.518 39.1653 102.982 39.048 103.526 39.048C104.102 39.048 104.592 39.1813 104.998 39.448C105.414 39.7147 105.739 40.088 105.974 40.568C106.07 40.408 106.192 40.2373 106.342 40.056C106.491 39.8747 106.672 39.7093 106.886 39.56C107.11 39.4107 107.36 39.288 107.638 39.192C107.926 39.096 108.256 39.048 108.63 39.048C109.536 39.048 110.24 39.3413 110.742 39.928C111.243 40.5147 111.494 41.3093 111.494 42.312V47H110.118V42.552C110.118 41.8587 109.968 41.3147 109.67 40.92C109.382 40.5147 108.944 40.312 108.358 40.312C107.75 40.312 107.264 40.5467 106.902 41.016C106.55 41.4853 106.374 42.12 106.374 42.92V47H104.998V42.584C104.998 41.88 104.848 41.3253 104.55 40.92C104.251 40.5147 103.814 40.312 103.238 40.312C102.63 40.312 102.144 40.5467 101.782 41.016C101.43 41.4853 101.254 42.12 101.254 42.92V47ZM117.444 39.048C118.031 39.048 118.569 39.1547 119.06 39.368C119.561 39.5813 119.993 39.8747 120.356 40.248C120.719 40.6107 121.001 41.0373 121.204 41.528C121.407 42.0187 121.508 42.5467 121.508 43.112C121.508 43.6773 121.407 44.2053 121.204 44.696C121.001 45.1867 120.719 45.6187 120.356 45.992C119.993 46.3547 119.561 46.6427 119.06 46.856C118.569 47.0693 118.031 47.176 117.444 47.176C116.857 47.176 116.313 47.0693 115.812 46.856C115.321 46.6427 114.895 46.3547 114.532 45.992C114.169 45.6187 113.887 45.1867 113.684 44.696C113.481 44.2053 113.38 43.6773 113.38 43.112C113.38 42.5467 113.481 42.0187 113.684 41.528C113.887 41.0373 114.169 40.6107 114.532 40.248C114.895 39.8747 115.321 39.5813 115.812 39.368C116.313 39.1547 116.857 39.048 117.444 39.048ZM117.444 40.312C117.06 40.312 116.703 40.3867 116.372 40.536C116.052 40.6747 115.769 40.872 115.524 41.128C115.289 41.384 115.103 41.6827 114.964 42.024C114.836 42.3653 114.772 42.728 114.772 43.112C114.772 43.496 114.836 43.8587 114.964 44.2C115.103 44.5413 115.289 44.84 115.524 45.096C115.769 45.352 116.052 45.5547 116.372 45.704C116.703 45.8427 117.06 45.912 117.444 45.912C117.828 45.912 118.18 45.8427 118.5 45.704C118.831 45.5547 119.113 45.352 119.348 45.096C119.593 44.84 119.78 44.5413 119.908 44.2C120.047 43.8587 120.116 43.496 120.116 43.112C120.116 42.728 120.047 42.3653 119.908 42.024C119.78 41.6827 119.593 41.384 119.348 41.128C119.113 40.872 118.831 40.6747 118.5 40.536C118.18 40.3867 117.828 40.312 117.444 40.312ZM124.879 47H123.503V39.224H124.879V40.344C125.124 39.96 125.449 39.6507 125.855 39.416C126.271 39.1707 126.772 39.048 127.359 39.048C128.361 39.048 129.135 39.3573 129.679 39.976C130.223 40.584 130.495 41.4053 130.495 42.44V47H129.119V42.6C129.119 41.896 128.943 41.3413 128.591 40.936C128.249 40.5307 127.743 40.328 127.071 40.328C126.399 40.328 125.865 40.5627 125.471 41.032C125.076 41.5013 124.879 42.136 124.879 42.936V47ZM134.62 36.888V39.224H136.796V40.456H134.62V44.568C134.62 45.0267 134.721 45.3627 134.924 45.576C135.137 45.7893 135.468 45.896 135.916 45.896C136.065 45.896 136.22 45.88 136.38 45.848C136.54 45.8053 136.679 45.7413 136.796 45.656V46.936C136.657 47.0107 136.487 47.0693 136.284 47.112C136.092 47.1547 135.863 47.176 135.596 47.176C134.86 47.176 134.284 46.9627 133.868 46.536C133.452 46.1093 133.244 45.5173 133.244 44.76V40.456H132.044V39.224H133.244V36.888H134.62ZM140.004 47H138.628V35.8H140.004V40.344C140.249 39.96 140.574 39.6507 140.98 39.416C141.396 39.1707 141.897 39.048 142.484 39.048C143.486 39.048 144.26 39.3573 144.804 39.976C145.348 40.584 145.62 41.4053 145.62 42.44V47H144.244V42.6C144.244 41.896 144.068 41.3413 143.716 40.936C143.374 40.5307 142.868 40.328 142.196 40.328C141.524 40.328 140.99 40.5627 140.596 41.032C140.201 41.5013 140.004 42.136 140.004 42.936V47Z" fill="#686585"/>
<rect x="228" y="32" width="16" height="16" rx="8" fill="white" stroke="#F2F2F4"/>
<circle cx="236" cy="40" r="4" fill="white"/>
<rect x="20.5" y="8.5" width="239" height="63" rx="15.5" stroke="#F2F2F4"/>
<g filter="url(#filter0_dd_2646_31909)">
<rect x="20" y="88" width="240" height="64" rx="16" fill="white" shape-rendering="crispEdges"/>
<path d="M39.06 122.44C39.2867 123.013 39.6267 123.473 40.08 123.82C40.5333 124.153 41.0467 124.32 41.62 124.32C42.0867 124.32 42.4867 124.207 42.82 123.98C43.1533 123.753 43.32 123.427 43.32 123C43.32 122.373 42.86 121.907 41.94 121.6L40.36 121.02C39.4 120.673 38.6333 120.2 38.06 119.6C37.4867 119 37.2 118.22 37.2 117.26C37.2 116.74 37.28 116.26 37.44 115.82C37.6133 115.38 37.8533 114.993 38.16 114.66C38.4667 114.327 38.8267 114.047 39.24 113.82C39.6533 113.593 40.1133 113.44 40.62 113.36V111.48H42.62V113.42C43.3667 113.58 44.0333 113.893 44.62 114.36C45.22 114.827 45.6867 115.42 46.02 116.14L43.66 117.5C43.46 117.06 43.1867 116.687 42.84 116.38C42.4933 116.073 42.0667 115.92 41.56 115.92C41.1333 115.92 40.78 116.027 40.5 116.24C40.2333 116.453 40.1 116.733 40.1 117.08C40.1 117.4 40.2133 117.66 40.44 117.86C40.6667 118.06 40.9867 118.24 41.4 118.4L43.1 119.06C44.1667 119.447 44.9533 119.947 45.46 120.56C45.98 121.173 46.24 121.933 46.24 122.84C46.24 123.4 46.1467 123.913 45.96 124.38C45.7733 124.833 45.5133 125.233 45.18 125.58C44.8467 125.913 44.46 126.193 44.02 126.42C43.58 126.647 43.1133 126.807 42.62 126.9V128.92H40.62V126.92C39.7267 126.773 38.9267 126.433 38.22 125.9C37.5133 125.367 36.9867 124.653 36.64 123.76L39.06 122.44ZM52.5775 118.74C52.8175 118.74 53.0442 118.7 53.2575 118.62C53.4708 118.527 53.6508 118.413 53.7975 118.28C53.9575 118.133 54.0842 117.967 54.1775 117.78C54.2708 117.58 54.3175 117.373 54.3175 117.16C54.3175 116.733 54.1642 116.38 53.8575 116.1C53.5508 115.807 53.1508 115.66 52.6575 115.66C52.1242 115.66 51.6975 115.84 51.3775 116.2C51.0575 116.56 50.8908 117.027 50.8775 117.6H48.0375C48.0375 116.88 48.1508 116.24 48.3775 115.68C48.6175 115.107 48.9375 114.627 49.3375 114.24C49.7508 113.84 50.2442 113.54 50.8175 113.34C51.3908 113.127 52.0175 113.02 52.6975 113.02C53.3508 113.02 53.9575 113.12 54.5175 113.32C55.0775 113.507 55.5575 113.773 55.9575 114.12C56.3708 114.453 56.6842 114.853 56.8975 115.32C57.1242 115.773 57.2375 116.273 57.2375 116.82C57.2375 118.073 56.6842 119.027 55.5775 119.68C56.2975 119.987 56.8508 120.413 57.2375 120.96C57.6242 121.507 57.8175 122.16 57.8175 122.92C57.8175 123.56 57.6908 124.147 57.4375 124.68C57.1842 125.213 56.8308 125.673 56.3775 126.06C55.9375 126.433 55.4108 126.727 54.7975 126.94C54.1842 127.153 53.5108 127.26 52.7775 127.26C52.0175 127.26 51.3308 127.153 50.7175 126.94C50.1042 126.713 49.5775 126.393 49.1375 125.98C48.6975 125.553 48.3575 125.04 48.1175 124.44C47.8775 123.84 47.7508 123.16 47.7375 122.4H50.6375C50.6642 123.013 50.8708 123.527 51.2575 123.94C51.6575 124.353 52.1775 124.56 52.8175 124.56C53.4175 124.56 53.9042 124.4 54.2775 124.08C54.6508 123.76 54.8375 123.32 54.8375 122.76C54.8375 122.227 54.6308 121.8 54.2175 121.48C53.8175 121.16 53.2842 121 52.6175 121H51.9775V118.74H52.5775ZM59.62 120.66L60.64 113.26H68.52V115.82H62.88L62.5 118.44C62.82 118.173 63.2 117.973 63.64 117.84C64.0933 117.693 64.56 117.62 65.04 117.62C65.6933 117.62 66.2933 117.74 66.84 117.98C67.3867 118.22 67.8533 118.547 68.24 118.96C68.64 119.373 68.9467 119.86 69.16 120.42C69.3867 120.967 69.5 121.553 69.5 122.18C69.5 122.9 69.3667 123.573 69.1 124.2C68.8467 124.813 68.4867 125.347 68.02 125.8C67.5667 126.253 67.0267 126.613 66.4 126.88C65.7733 127.133 65.1 127.26 64.38 127.26C63.62 127.26 62.9267 127.153 62.3 126.94C61.6867 126.713 61.16 126.407 60.72 126.02C60.28 125.62 59.9333 125.147 59.68 124.6C59.4267 124.04 59.2933 123.427 59.28 122.76H62.14C62.1933 123.253 62.4067 123.68 62.78 124.04C63.1667 124.4 63.6933 124.58 64.36 124.58C64.68 124.58 64.9733 124.52 65.24 124.4C65.5067 124.28 65.74 124.12 65.94 123.92C66.14 123.72 66.2933 123.487 66.4 123.22C66.52 122.94 66.58 122.64 66.58 122.32C66.58 122 66.52 121.707 66.4 121.44C66.2933 121.16 66.1333 120.92 65.92 120.72C65.72 120.52 65.48 120.367 65.2 120.26C64.9333 120.14 64.64 120.08 64.32 120.08C63.8667 120.08 63.4667 120.187 63.12 120.4C62.7733 120.613 62.4867 120.88 62.26 121.2L59.62 120.66ZM71.2202 125.48C71.2202 125.24 71.2668 125.013 71.3602 124.8C71.4535 124.587 71.5802 124.4 71.7402 124.24C71.9002 124.08 72.0868 123.953 72.3002 123.86C72.5135 123.767 72.7468 123.72 73.0002 123.72C73.2402 123.72 73.4668 123.767 73.6802 123.86C73.9068 123.953 74.1002 124.08 74.2602 124.24C74.4202 124.4 74.5468 124.587 74.6402 124.8C74.7335 125.013 74.7802 125.24 74.7802 125.48C74.7802 125.96 74.6068 126.373 74.2602 126.72C73.9268 127.067 73.5068 127.24 73.0002 127.24C72.4935 127.24 72.0668 127.073 71.7202 126.74C71.3868 126.393 71.2202 125.973 71.2202 125.48ZM76.5238 118.08C76.5238 117.36 76.6571 116.693 76.9238 116.08C77.1904 115.453 77.5571 114.92 78.0238 114.48C78.4904 114.027 79.0371 113.673 79.6638 113.42C80.3038 113.153 80.9971 113.02 81.7438 113.02C82.4904 113.02 83.1771 113.147 83.8038 113.4C84.4438 113.653 84.9971 114.007 85.4638 114.46C85.9304 114.9 86.2971 115.427 86.5638 116.04C86.8304 116.653 86.9638 117.32 86.9638 118.04C86.9638 119.307 86.5038 120.653 85.5838 122.08L82.4038 127H79.0038L82.0838 122.56C81.9238 122.627 81.7504 122.673 81.5638 122.7C81.3904 122.727 81.2304 122.74 81.0838 122.74C80.4171 122.74 79.8038 122.62 79.2438 122.38C78.6971 122.127 78.2171 121.793 77.8038 121.38C77.4038 120.953 77.0904 120.46 76.8638 119.9C76.6371 119.327 76.5238 118.72 76.5238 118.08ZM79.4238 117.98C79.4238 118.3 79.4838 118.6 79.6038 118.88C79.7238 119.16 79.8904 119.4 80.1038 119.6C80.3171 119.8 80.5638 119.96 80.8438 120.08C81.1238 120.2 81.4238 120.26 81.7438 120.26C82.0638 120.26 82.3638 120.2 82.6438 120.08C82.9371 119.96 83.1838 119.8 83.3838 119.6C83.5971 119.4 83.7638 119.167 83.8838 118.9C84.0038 118.62 84.0638 118.32 84.0638 118C84.0638 117.68 84.0038 117.38 83.8838 117.1C83.7638 116.82 83.5971 116.58 83.3838 116.38C83.1838 116.167 82.9438 116 82.6638 115.88C82.3838 115.76 82.0838 115.7 81.7638 115.7C81.4438 115.7 81.1371 115.76 80.8438 115.88C80.5638 116 80.3171 116.167 80.1038 116.38C79.8904 116.58 79.7238 116.82 79.6038 117.1C79.4838 117.367 79.4238 117.66 79.4238 117.98ZM88.4183 118.08C88.4183 117.36 88.5516 116.693 88.8183 116.08C89.0849 115.453 89.4516 114.92 89.9183 114.48C90.3849 114.027 90.9316 113.673 91.5583 113.42C92.1983 113.153 92.8916 113.02 93.6383 113.02C94.3849 113.02 95.0716 113.147 95.6983 113.4C96.3383 113.653 96.8916 114.007 97.3583 114.46C97.8249 114.9 98.1916 115.427 98.4583 116.04C98.7249 116.653 98.8583 117.32 98.8583 118.04C98.8583 119.307 98.3983 120.653 97.4783 122.08L94.2983 127H90.8983L93.9783 122.56C93.8183 122.627 93.6449 122.673 93.4583 122.7C93.2849 122.727 93.1249 122.74 92.9783 122.74C92.3116 122.74 91.6983 122.62 91.1383 122.38C90.5916 122.127 90.1116 121.793 89.6983 121.38C89.2983 120.953 88.9849 120.46 88.7583 119.9C88.5316 119.327 88.4183 118.72 88.4183 118.08ZM91.3183 117.98C91.3183 118.3 91.3783 118.6 91.4983 118.88C91.6183 119.16 91.7849 119.4 91.9983 119.6C92.2116 119.8 92.4583 119.96 92.7383 120.08C93.0183 120.2 93.3183 120.26 93.6383 120.26C93.9583 120.26 94.2583 120.2 94.5383 120.08C94.8316 119.96 95.0783 119.8 95.2783 119.6C95.4916 119.4 95.6583 119.167 95.7783 118.9C95.8983 118.62 95.9583 118.32 95.9583 118C95.9583 117.68 95.8983 117.38 95.7783 117.1C95.6583 116.82 95.4916 116.58 95.2783 116.38C95.0783 116.167 94.8383 116 94.5583 115.88C94.2783 115.76 93.9783 115.7 93.6583 115.7C93.3383 115.7 93.0316 115.76 92.7383 115.88C92.4583 116 92.2116 116.167 91.9983 116.38C91.7849 116.58 91.6183 116.82 91.4983 117.1C91.3783 117.367 91.3183 117.66 91.3183 117.98Z" fill="#150326"/>
<path d="M100.849 128.6H99.4728L105.361 114.76H106.737L100.849 128.6ZM115.556 119.224V130.328H114.196V125.768C113.919 126.195 113.535 126.536 113.044 126.792C112.554 127.048 112.02 127.176 111.444 127.176C110.89 127.176 110.372 127.075 109.892 126.872C109.423 126.659 109.012 126.371 108.66 126.008C108.308 125.645 108.031 125.219 107.828 124.728C107.636 124.227 107.54 123.688 107.54 123.112C107.54 122.536 107.636 122.003 107.828 121.512C108.031 121.021 108.308 120.595 108.66 120.232C109.012 119.859 109.423 119.571 109.892 119.368C110.372 119.155 110.89 119.048 111.444 119.048C112.02 119.048 112.548 119.165 113.028 119.4C113.519 119.635 113.908 119.965 114.196 120.392V119.224H115.556ZM114.276 123.112C114.276 122.717 114.207 122.349 114.068 122.008C113.94 121.667 113.754 121.373 113.508 121.128C113.274 120.872 112.991 120.675 112.66 120.536C112.34 120.387 111.988 120.312 111.604 120.312C111.22 120.312 110.863 120.387 110.532 120.536C110.212 120.675 109.93 120.872 109.684 121.128C109.45 121.373 109.263 121.667 109.124 122.008C108.996 122.349 108.932 122.717 108.932 123.112C108.932 123.507 108.996 123.875 109.124 124.216C109.263 124.557 109.45 124.856 109.684 125.112C109.93 125.357 110.212 125.555 110.532 125.704C110.863 125.843 111.22 125.912 111.604 125.912C111.988 125.912 112.34 125.843 112.66 125.704C112.991 125.555 113.274 125.357 113.508 125.112C113.754 124.856 113.94 124.557 114.068 124.216C114.207 123.875 114.276 123.507 114.276 123.112ZM123.572 119.224H124.948V127H123.572V125.88C123.327 126.264 123.001 126.579 122.596 126.824C122.191 127.059 121.695 127.176 121.108 127.176C120.116 127.176 119.348 126.872 118.804 126.264C118.271 125.645 118.004 124.819 118.004 123.784V119.224H119.38V123.624C119.38 124.328 119.551 124.883 119.892 125.288C120.233 125.693 120.735 125.896 121.396 125.896C122.057 125.896 122.585 125.661 122.98 125.192C123.375 124.723 123.572 124.088 123.572 123.288V119.224ZM134.963 119.224V127H133.603V125.752C133.325 126.189 132.941 126.536 132.451 126.792C131.96 127.048 131.427 127.176 130.851 127.176C130.296 127.176 129.779 127.075 129.299 126.872C128.829 126.659 128.419 126.371 128.067 126.008C127.715 125.645 127.437 125.219 127.235 124.728C127.043 124.227 126.947 123.688 126.947 123.112C126.947 122.536 127.043 122.003 127.235 121.512C127.437 121.021 127.715 120.595 128.067 120.232C128.419 119.859 128.829 119.571 129.299 119.368C129.779 119.155 130.296 119.048 130.851 119.048C131.427 119.048 131.955 119.165 132.435 119.4C132.925 119.635 133.315 119.971 133.603 120.408V119.224H134.963ZM133.683 123.112C133.683 122.717 133.613 122.349 133.475 122.008C133.347 121.667 133.16 121.373 132.915 121.128C132.68 120.872 132.397 120.675 132.067 120.536C131.747 120.387 131.395 120.312 131.011 120.312C130.627 120.312 130.269 120.387 129.939 120.536C129.619 120.675 129.336 120.872 129.091 121.128C128.856 121.373 128.669 121.667 128.531 122.008C128.403 122.349 128.339 122.717 128.339 123.112C128.339 123.507 128.403 123.875 128.531 124.216C128.669 124.557 128.856 124.856 129.091 125.112C129.336 125.357 129.619 125.555 129.939 125.704C130.269 125.843 130.627 125.912 131.011 125.912C131.395 125.912 131.747 125.843 132.067 125.704C132.397 125.555 132.68 125.357 132.915 125.112C133.16 124.856 133.347 124.557 133.475 124.216C133.613 123.875 133.683 123.507 133.683 123.112ZM141.586 120.504C141.565 120.504 141.533 120.499 141.49 120.488C141.458 120.488 141.416 120.488 141.362 120.488C141.309 120.477 141.256 120.472 141.202 120.472C140.477 120.472 139.906 120.733 139.49 121.256C139.085 121.779 138.882 122.461 138.882 123.304V127H137.522V119.224H138.866V120.6C138.952 120.376 139.074 120.173 139.234 119.992C139.405 119.8 139.597 119.64 139.81 119.512C140.024 119.384 140.253 119.283 140.498 119.208C140.744 119.133 140.994 119.096 141.25 119.096C141.304 119.096 141.346 119.101 141.378 119.112C141.421 119.112 141.458 119.112 141.49 119.112C141.533 119.123 141.565 119.128 141.586 119.128V120.504ZM144.968 116.888V119.224H147.144V120.456H144.968V124.568C144.968 125.027 145.069 125.363 145.272 125.576C145.485 125.789 145.816 125.896 146.264 125.896C146.413 125.896 146.568 125.88 146.728 125.848C146.888 125.805 147.026 125.741 147.144 125.656V126.936C147.005 127.011 146.834 127.069 146.632 127.112C146.44 127.155 146.21 127.176 145.944 127.176C145.208 127.176 144.632 126.963 144.216 126.536C143.8 126.109 143.592 125.517 143.592 124.76V120.456H142.392V119.224H143.592V116.888H144.968ZM152.383 127.176C151.807 127.176 151.274 127.075 150.783 126.872C150.303 126.669 149.887 126.392 149.535 126.04C149.183 125.677 148.906 125.251 148.703 124.76C148.511 124.259 148.415 123.709 148.415 123.112C148.415 122.536 148.511 122.003 148.703 121.512C148.906 121.011 149.178 120.579 149.519 120.216C149.871 119.853 150.282 119.571 150.751 119.368C151.221 119.155 151.733 119.048 152.287 119.048C152.831 119.048 153.333 119.155 153.791 119.368C154.261 119.571 154.661 119.853 154.991 120.216C155.333 120.579 155.594 121.005 155.775 121.496C155.967 121.976 156.063 122.493 156.063 123.048C156.063 123.133 156.058 123.208 156.047 123.272C156.047 123.325 156.047 123.373 156.047 123.416V123.544H149.791C149.813 123.885 149.898 124.205 150.047 124.504C150.197 124.792 150.389 125.043 150.623 125.256C150.858 125.469 151.125 125.64 151.423 125.768C151.733 125.885 152.058 125.944 152.399 125.944C152.986 125.944 153.445 125.821 153.775 125.576C154.117 125.32 154.41 125 154.655 124.616L155.775 125.192C155.455 125.779 155.007 126.259 154.431 126.632C153.855 126.995 153.173 127.176 152.383 127.176ZM154.671 122.408C154.639 122.099 154.554 121.816 154.415 121.56C154.277 121.293 154.101 121.064 153.887 120.872C153.674 120.68 153.429 120.531 153.151 120.424C152.874 120.307 152.575 120.248 152.255 120.248C151.935 120.248 151.637 120.312 151.359 120.44C151.082 120.568 150.831 120.733 150.607 120.936C150.394 121.139 150.218 121.368 150.079 121.624C149.941 121.88 149.855 122.141 149.823 122.408H154.671ZM162.055 120.504C162.034 120.504 162.002 120.499 161.959 120.488C161.927 120.488 161.884 120.488 161.831 120.488C161.778 120.477 161.724 120.472 161.671 120.472C160.946 120.472 160.375 120.733 159.959 121.256C159.554 121.779 159.351 122.461 159.351 123.304V127H157.991V119.224H159.335V120.6C159.42 120.376 159.543 120.173 159.703 119.992C159.874 119.8 160.066 119.64 160.279 119.512C160.492 119.384 160.722 119.283 160.967 119.208C161.212 119.133 161.463 119.096 161.719 119.096C161.772 119.096 161.815 119.101 161.847 119.112C161.89 119.112 161.927 119.112 161.959 119.112C162.002 119.123 162.034 119.128 162.055 119.128V120.504Z" fill="#686585"/>
<rect x="228" y="112" width="16" height="16" rx="8" fill="white" stroke="#5C28AE" stroke-width="2"/>
<circle cx="236" cy="120" r="5" fill="#5C28AE"/>
<rect x="20.5" y="88.5" width="239" height="63" rx="15.5" stroke="#9764CD" shape-rendering="crispEdges"/>
</g>
<rect x="20.5" y="168.5" width="239" height="63" rx="15.5" fill="white"/>
<path d="M39.06 202.44C39.2867 203.013 39.6267 203.473 40.08 203.82C40.5333 204.153 41.0467 204.32 41.62 204.32C42.0867 204.32 42.4867 204.207 42.82 203.98C43.1533 203.753 43.32 203.427 43.32 203C43.32 202.373 42.86 201.907 41.94 201.6L40.36 201.02C39.4 200.673 38.6333 200.2 38.06 199.6C37.4867 199 37.2 198.22 37.2 197.26C37.2 196.74 37.28 196.26 37.44 195.82C37.6133 195.38 37.8533 194.993 38.16 194.66C38.4667 194.327 38.8267 194.047 39.24 193.82C39.6533 193.593 40.1133 193.44 40.62 193.36V191.48H42.62V193.42C43.3667 193.58 44.0333 193.893 44.62 194.36C45.22 194.827 45.6867 195.42 46.02 196.14L43.66 197.5C43.46 197.06 43.1867 196.687 42.84 196.38C42.4933 196.073 42.0667 195.92 41.56 195.92C41.1333 195.92 40.78 196.027 40.5 196.24C40.2333 196.453 40.1 196.733 40.1 197.08C40.1 197.4 40.2133 197.66 40.44 197.86C40.6667 198.06 40.9867 198.24 41.4 198.4L43.1 199.06C44.1667 199.447 44.9533 199.947 45.46 200.56C45.98 201.173 46.24 201.933 46.24 202.84C46.24 203.4 46.1467 203.913 45.96 204.38C45.7733 204.833 45.5133 205.233 45.18 205.58C44.8467 205.913 44.46 206.193 44.02 206.42C43.58 206.647 43.1133 206.807 42.62 206.9V208.92H40.62V206.92C39.7267 206.773 38.9267 206.433 38.22 205.9C37.5133 205.367 36.9867 204.653 36.64 203.76L39.06 202.44ZM49.9775 207V196H47.5975V193.26H52.9375V207H49.9775ZM60.1175 193.02C60.8108 193.02 61.4575 193.133 62.0575 193.36C62.6575 193.573 63.1708 193.88 63.5975 194.28C64.0242 194.667 64.3575 195.133 64.5975 195.68C64.8508 196.213 64.9775 196.807 64.9775 197.46C64.9775 198.327 64.7508 199.127 64.2975 199.86C63.8442 200.58 63.0908 201.367 62.0375 202.22C61.6908 202.5 61.3575 202.773 61.0375 203.04C60.7175 203.293 60.4308 203.52 60.1775 203.72C59.8842 203.96 59.6042 204.173 59.3375 204.36H65.0975V207H55.1975V204.64L60.4375 200.14C60.9975 199.66 61.3975 199.227 61.6375 198.84C61.8775 198.453 61.9975 198.06 61.9975 197.66C61.9975 197.1 61.8175 196.647 61.4575 196.3C61.0975 195.953 60.6508 195.78 60.1175 195.78C59.5175 195.78 59.0375 196 58.6775 196.44C58.3308 196.867 58.1508 197.427 58.1375 198.12H55.2375C55.2375 197.347 55.3508 196.647 55.5775 196.02C55.8175 195.393 56.1442 194.86 56.5575 194.42C56.9842 193.967 57.4975 193.62 58.0975 193.38C58.6975 193.14 59.3708 193.02 60.1175 193.02ZM66.5042 198.08C66.5042 197.36 66.6376 196.693 66.9042 196.08C67.1709 195.453 67.5376 194.92 68.0042 194.48C68.4709 194.027 69.0176 193.673 69.6442 193.42C70.2842 193.153 70.9776 193.02 71.7242 193.02C72.4709 193.02 73.1576 193.147 73.7842 193.4C74.4242 193.653 74.9776 194.007 75.4442 194.46C75.9109 194.9 76.2776 195.427 76.5442 196.04C76.8109 196.653 76.9442 197.32 76.9442 198.04C76.9442 199.307 76.4842 200.653 75.5642 202.08L72.3842 207H68.9842L72.0642 202.56C71.9042 202.627 71.7309 202.673 71.5442 202.7C71.3709 202.727 71.2109 202.74 71.0642 202.74C70.3976 202.74 69.7842 202.62 69.2242 202.38C68.6776 202.127 68.1976 201.793 67.7842 201.38C67.3842 200.953 67.0709 200.46 66.8442 199.9C66.6176 199.327 66.5042 198.72 66.5042 198.08ZM69.4042 197.98C69.4042 198.3 69.4642 198.6 69.5842 198.88C69.7042 199.16 69.8709 199.4 70.0842 199.6C70.2976 199.8 70.5442 199.96 70.8242 200.08C71.1042 200.2 71.4042 200.26 71.7242 200.26C72.0442 200.26 72.3442 200.2 72.6242 200.08C72.9176 199.96 73.1642 199.8 73.3642 199.6C73.5776 199.4 73.7442 199.167 73.8642 198.9C73.9842 198.62 74.0442 198.32 74.0442 198C74.0442 197.68 73.9842 197.38 73.8642 197.1C73.7442 196.82 73.5776 196.58 73.3642 196.38C73.1642 196.167 72.9242 196 72.6442 195.88C72.3642 195.76 72.0642 195.7 71.7442 195.7C71.4242 195.7 71.1176 195.76 70.8242 195.88C70.5442 196 70.2976 196.167 70.0842 196.38C69.8709 196.58 69.7042 196.82 69.5842 197.1C69.4642 197.367 69.4042 197.66 69.4042 197.98ZM78.7788 205.48C78.7788 205.24 78.8254 205.013 78.9188 204.8C79.0121 204.587 79.1388 204.4 79.2988 204.24C79.4588 204.08 79.6454 203.953 79.8588 203.86C80.0721 203.767 80.3054 203.72 80.5588 203.72C80.7988 203.72 81.0254 203.767 81.2388 203.86C81.4654 203.953 81.6588 204.08 81.8188 204.24C81.9788 204.4 82.1054 204.587 82.1988 204.8C82.2921 205.013 82.3388 205.24 82.3388 205.48C82.3388 205.96 82.1654 206.373 81.8188 206.72C81.4854 207.067 81.0654 207.24 80.5588 207.24C80.0521 207.24 79.6254 207.073 79.2788 206.74C78.9454 206.393 78.7788 205.973 78.7788 205.48ZM84.0823 198.08C84.0823 197.36 84.2157 196.693 84.4823 196.08C84.749 195.453 85.1157 194.92 85.5823 194.48C86.049 194.027 86.5957 193.673 87.2223 193.42C87.8623 193.153 88.5557 193.02 89.3023 193.02C90.049 193.02 90.7357 193.147 91.3623 193.4C92.0023 193.653 92.5557 194.007 93.0223 194.46C93.489 194.9 93.8557 195.427 94.1223 196.04C94.389 196.653 94.5223 197.32 94.5223 198.04C94.5223 199.307 94.0623 200.653 93.1423 202.08L89.9623 207H86.5623L89.6423 202.56C89.4823 202.627 89.309 202.673 89.1223 202.7C88.949 202.727 88.789 202.74 88.6423 202.74C87.9757 202.74 87.3623 202.62 86.8023 202.38C86.2557 202.127 85.7757 201.793 85.3623 201.38C84.9623 200.953 84.649 200.46 84.4223 199.9C84.1957 199.327 84.0823 198.72 84.0823 198.08ZM86.9823 197.98C86.9823 198.3 87.0423 198.6 87.1623 198.88C87.2823 199.16 87.449 199.4 87.6623 199.6C87.8757 199.8 88.1223 199.96 88.4023 200.08C88.6823 200.2 88.9823 200.26 89.3023 200.26C89.6223 200.26 89.9223 200.2 90.2023 200.08C90.4957 199.96 90.7423 199.8 90.9423 199.6C91.1557 199.4 91.3223 199.167 91.4423 198.9C91.5623 198.62 91.6223 198.32 91.6223 198C91.6223 197.68 91.5623 197.38 91.4423 197.1C91.3223 196.82 91.1557 196.58 90.9423 196.38C90.7423 196.167 90.5023 196 90.2223 195.88C89.9423 195.76 89.6423 195.7 89.3223 195.7C89.0023 195.7 88.6957 195.76 88.4023 195.88C88.1223 196 87.8757 196.167 87.6623 196.38C87.449 196.58 87.2823 196.82 87.1623 197.1C87.0423 197.367 86.9823 197.66 86.9823 197.98ZM95.9769 198.08C95.9769 197.36 96.1102 196.693 96.3769 196.08C96.6435 195.453 97.0102 194.92 97.4769 194.48C97.9435 194.027 98.4902 193.673 99.1169 193.42C99.7569 193.153 100.45 193.02 101.197 193.02C101.944 193.02 102.63 193.147 103.257 193.4C103.897 193.653 104.45 194.007 104.917 194.46C105.384 194.9 105.75 195.427 106.017 196.04C106.284 196.653 106.417 197.32 106.417 198.04C106.417 199.307 105.957 200.653 105.037 202.08L101.857 207H98.4569L101.537 202.56C101.377 202.627 101.204 202.673 101.017 202.7C100.844 202.727 100.684 202.74 100.537 202.74C99.8702 202.74 99.2569 202.62 98.6969 202.38C98.1502 202.127 97.6702 201.793 97.2569 201.38C96.8569 200.953 96.5435 200.46 96.3169 199.9C96.0902 199.327 95.9769 198.72 95.9769 198.08ZM98.8769 197.98C98.8769 198.3 98.9369 198.6 99.0569 198.88C99.1769 199.16 99.3435 199.4 99.5569 199.6C99.7702 199.8 100.017 199.96 100.297 200.08C100.577 200.2 100.877 200.26 101.197 200.26C101.517 200.26 101.817 200.2 102.097 200.08C102.39 199.96 102.637 199.8 102.837 199.6C103.05 199.4 103.217 199.167 103.337 198.9C103.457 198.62 103.517 198.32 103.517 198C103.517 197.68 103.457 197.38 103.337 197.1C103.217 196.82 103.05 196.58 102.837 196.38C102.637 196.167 102.397 196 102.117 195.88C101.837 195.76 101.537 195.7 101.217 195.7C100.897 195.7 100.59 195.76 100.297 195.88C100.017 196 99.7702 196.167 99.5569 196.38C99.3435 196.58 99.1769 196.82 99.0569 197.1C98.9369 197.367 98.8769 197.66 98.8769 197.98Z" fill="#150326"/>
<path d="M108.407 208.6H107.031L112.919 194.76H114.295L108.407 208.6ZM118.555 208.184C118.203 209.027 117.835 209.624 117.451 209.976C117.067 210.339 116.582 210.52 115.995 210.52C115.675 210.52 115.392 210.467 115.147 210.36V209.144C115.232 209.176 115.339 209.203 115.467 209.224C115.595 209.256 115.734 209.272 115.883 209.272C116.192 209.272 116.448 209.171 116.651 208.968C116.864 208.765 117.078 208.413 117.291 207.912L117.755 206.792L114.667 199.224H116.139L118.475 205.224L120.875 199.224H122.299L118.555 208.184ZM127.27 207.176C126.694 207.176 126.161 207.075 125.67 206.872C125.19 206.669 124.774 206.392 124.422 206.04C124.07 205.677 123.793 205.251 123.59 204.76C123.398 204.259 123.302 203.709 123.302 203.112C123.302 202.536 123.398 202.003 123.59 201.512C123.793 201.011 124.065 200.579 124.406 200.216C124.758 199.853 125.169 199.571 125.638 199.368C126.107 199.155 126.619 199.048 127.174 199.048C127.718 199.048 128.219 199.155 128.678 199.368C129.147 199.571 129.547 199.853 129.878 200.216C130.219 200.579 130.481 201.005 130.662 201.496C130.854 201.976 130.95 202.493 130.95 203.048C130.95 203.133 130.945 203.208 130.934 203.272C130.934 203.325 130.934 203.373 130.934 203.416V203.544H124.678C124.699 203.885 124.785 204.205 124.934 204.504C125.083 204.792 125.275 205.043 125.51 205.256C125.745 205.469 126.011 205.64 126.31 205.768C126.619 205.885 126.945 205.944 127.286 205.944C127.873 205.944 128.331 205.821 128.662 205.576C129.003 205.32 129.297 205 129.542 204.616L130.662 205.192C130.342 205.779 129.894 206.259 129.318 206.632C128.742 206.995 128.059 207.176 127.27 207.176ZM129.558 202.408C129.526 202.099 129.441 201.816 129.302 201.56C129.163 201.293 128.987 201.064 128.774 200.872C128.561 200.68 128.315 200.531 128.038 200.424C127.761 200.307 127.462 200.248 127.142 200.248C126.822 200.248 126.523 200.312 126.246 200.44C125.969 200.568 125.718 200.733 125.494 200.936C125.281 201.139 125.105 201.368 124.966 201.624C124.827 201.88 124.742 202.141 124.71 202.408H129.558ZM140.334 199.224V207H138.974V205.752C138.696 206.189 138.312 206.536 137.822 206.792C137.331 207.048 136.798 207.176 136.222 207.176C135.667 207.176 135.15 207.075 134.67 206.872C134.2 206.659 133.79 206.371 133.438 206.008C133.086 205.645 132.808 205.219 132.606 204.728C132.414 204.227 132.318 203.688 132.318 203.112C132.318 202.536 132.414 202.003 132.606 201.512C132.808 201.021 133.086 200.595 133.438 200.232C133.79 199.859 134.2 199.571 134.67 199.368C135.15 199.155 135.667 199.048 136.222 199.048C136.798 199.048 137.326 199.165 137.806 199.4C138.296 199.635 138.686 199.971 138.974 200.408V199.224H140.334ZM139.054 203.112C139.054 202.717 138.984 202.349 138.846 202.008C138.718 201.667 138.531 201.373 138.286 201.128C138.051 200.872 137.768 200.675 137.438 200.536C137.118 200.387 136.766 200.312 136.382 200.312C135.998 200.312 135.64 200.387 135.31 200.536C134.99 200.675 134.707 200.872 134.462 201.128C134.227 201.373 134.04 201.667 133.902 202.008C133.774 202.349 133.71 202.717 133.71 203.112C133.71 203.507 133.774 203.875 133.902 204.216C134.04 204.557 134.227 204.856 134.462 205.112C134.707 205.357 134.99 205.555 135.31 205.704C135.64 205.843 135.998 205.912 136.382 205.912C136.766 205.912 137.118 205.843 137.438 205.704C137.768 205.555 138.051 205.357 138.286 205.112C138.531 204.856 138.718 204.557 138.846 204.216C138.984 203.875 139.054 203.507 139.054 203.112ZM146.957 200.504C146.936 200.504 146.904 200.499 146.861 200.488C146.829 200.488 146.787 200.488 146.733 200.488C146.68 200.477 146.627 200.472 146.573 200.472C145.848 200.472 145.277 200.733 144.861 201.256C144.456 201.779 144.253 202.461 144.253 203.304V207H142.893V199.224H144.237V200.6C144.323 200.376 144.445 200.173 144.605 199.992C144.776 199.8 144.968 199.64 145.181 199.512C145.395 199.384 145.624 199.283 145.869 199.208C146.115 199.133 146.365 199.096 146.621 199.096C146.675 199.096 146.717 199.101 146.749 199.112C146.792 199.112 146.829 199.112 146.861 199.112C146.904 199.123 146.936 199.128 146.957 199.128V200.504Z" fill="#686585"/>
<rect x="228" y="192" width="16" height="16" rx="8" fill="white" stroke="#F2F2F4"/>
<circle cx="236" cy="200" r="6" fill="white"/>
<rect x="20.5" y="168.5" width="239" height="63" rx="15.5" stroke="#F2F2F4"/>
<rect y="160" width="280" height="80" fill="url(#paint0_linear_2646_31909)"/>
<rect width="280" height="80" fill="url(#paint1_linear_2646_31909)"/>
<defs>
<filter id="filter0_dd_2646_31909" x="8" y="76" width="264" height="88" filterUnits="userSpaceOnUse" color-interpolation-filters="sRGB">
<feFlood flood-opacity="0" result="BackgroundImageFix"/>
<feColorMatrix in="SourceAlpha" type="matrix" values="0 0 0 0 0 0 0 0 0 0 0 0 0 0 0 0 0 0 127 0" result="hardAlpha"/>
<feOffset dx="4" dy="4"/>
<feGaussianBlur stdDeviation="4"/>
<feComposite in2="hardAlpha" operator="out"/>
<feColorMatrix type="matrix" values="0 0 0 0 0 0 0 0 0 0 0 0 0 0 0 0 0 0 0.04 0"/>
<feBlend mode="normal" in2="BackgroundImageFix" result="effect1_dropShadow_2646_31909"/>
<feColorMatrix in="SourceAlpha" type="matrix" values="0 0 0 0 0 0 0 0 0 0 0 0 0 0 0 0 0 0 127 0" result="hardAlpha"/>
<feOffset dx="-4" dy="-4"/>
<feGaussianBlur stdDeviation="4"/>
<feComposite in2="hardAlpha" operator="out"/>
<feColorMatrix type="matrix" values="0 0 0 0 0 0 0 0 0 0 0 0 0 0 0 0 0 0 0.04 0"/>
<feBlend mode="normal" in2="effect1_dropShadow_2646_31909" result="effect2_dropShadow_2646_31909"/>
<feBlend mode="normal" in="SourceGraphic" in2="effect2_dropShadow_2646_31909" result="shape"/>
</filter>
<linearGradient id="paint0_linear_2646_31909" x1="140" y1="160" x2="140" y2="240" gradientUnits="userSpaceOnUse">
<stop stop-color="white" stop-opacity="0"/>
<stop offset="1" stop-color="white"/>
</linearGradient>
<linearGradient id="paint1_linear_2646_31909" x1="140" y1="0" x2="140" y2="80" gradientUnits="userSpaceOnUse">
<stop stop-color="white"/>
<stop offset="1" stop-color="white" stop-opacity="0"/>
</linearGradient>
</defs>
</svg>
